<?xml version="1.0" encoding="UTF-8"?><svg xmlns="http://www.w3.org/2000/svg" xmlns:xlink="http://www.w3.org/1999/xlink" viewBox="0 0 145 145"><defs><style>.e{fill:#fff;}.f{fill:url(#d);}</style><linearGradient id="d" x1="0" y1="72.5" x2="145" y2="72.5" gradientTransform="matrix(1, 0, 0, 1, 0, 0)" gradientUnits="userSpaceOnUse"><stop offset="0" stop-color="#ff0074"/><stop offset="1" stop-color="#ff4097"/></linearGradient></defs><g id="a"/><g id="b"><g id="c"><rect class="f" x="0" y="0" width="145" height="145" rx="72.5" ry="72.5"/><path class="e" d="M59.92,117.38c-3.25,0-5.62-1.85-7.13-5.56-.81-2.09-1.39-6.78-1.74-14.08-.35-7.65-.52-15.07-.52-22.26,0-4.29,.06-8.52,.17-12.69,.35-13.79,1.62-21.85,3.83-24.17,.93-.93,2.96-1.8,6.09-2.61,5.8-1.39,12.29-2.09,19.48-2.09,6.03,0,11.13,.61,15.3,1.83,4.17,1.22,6.32,3.04,6.43,5.48v.17c0,3.13-4.93,4.69-14.78,4.69-1.51,0-6.67-.17-15.48-.52-.93,0-1.91,.12-2.96,.35-.93,.23-1.39,3.65-1.39,10.26,0,3.94,.17,9.16,.52,15.65,.11,2.32,.32,3.59,.61,3.83,.29,.23,2.11,.35,5.48,.35,1.74-.11,3.77-.17,6.09-.17,8.35,0,12.63,1.68,12.87,5.04v.35c0,1.86-.78,3.19-2.35,4-1.57,.81-5.13,1.33-10.69,1.56-3.48,0-6.61,.29-9.39,.87-1.62,.81-2.43,2.55-2.43,5.22v.52c.11,1.97,.32,4.15,.61,6.52,.29,2.38,.49,4.73,.61,7.04v1.04c0,6.26-3.07,9.39-9.22,9.39Z"/></g></g></svg>