<?xml version="1.0" encoding="UTF-8"?><svg xmlns="http://www.w3.org/2000/svg" viewBox="0 0 785.08 212.49"><defs><style>.d{fill:#fff;}</style></defs><g id="a"/><g id="b"><g id="c"><g><path class="d" d="M15.52,153.38c-5.37,0-9.29-3.06-11.78-9.2-1.34-3.45-2.3-11.21-2.87-23.28C.29,108.27,0,96.01,0,84.13c0-7.09,.09-14.08,.29-20.98C.87,40.36,2.97,27.04,6.61,23.21c1.53-1.53,4.88-2.97,10.06-4.31,9.58-2.3,20.3-3.45,32.18-3.45,9.96,0,18.39,1.01,25.29,3.02,6.9,2.01,10.44,5.03,10.63,9.05v.29c0,5.17-8.14,7.76-24.42,7.76-2.49,0-11.02-.29-25.58-.86-1.54,0-3.16,.19-4.88,.57-1.54,.39-2.3,6.03-2.3,16.95,0,6.52,.29,15.14,.86,25.86,.19,3.83,.53,5.94,1.01,6.32,.48,.39,3.49,.57,9.05,.57,2.87-.19,6.22-.29,10.06-.29,13.79,0,20.88,2.78,21.26,8.33v.57c0,3.07-1.29,5.27-3.88,6.61-2.59,1.34-8.48,2.2-17.67,2.59-5.75,0-10.92,.48-15.52,1.44-2.68,1.34-4.02,4.22-4.02,8.62v.86c.19,3.26,.53,6.85,1.01,10.78,.48,3.93,.81,7.81,1,11.64v1.72c0,10.35-5.08,15.52-15.23,15.52Z"/><path class="d" d="M116.18,154.53c-10.35,0-16.95-1.34-19.83-4.02-4.41-4.79-6.61-19.73-6.61-44.83,0-19.15,.38-38.41,1.15-57.76,.76-21.07,6.9-31.61,18.39-31.61,3.25,.19,5.65,.96,7.18,2.3,1.53,1.34,2.44,2.97,2.73,4.89,.29,1.92,.43,3.74,.43,5.46l-1.15,55.46c0,29.31,.24,44.73,.72,46.26,.48,1.54,3.21,2.3,8.19,2.3l7.47-.29c17.05,0,25.58,3.07,25.58,9.2,0,2.49-1.82,4.79-5.46,6.9-3.64,2.11-8.91,3.64-15.8,4.6-2.87,.19-6.32,.43-10.34,.72-4.02,.29-8.24,.43-12.64,.43Z"/><path class="d" d="M198.05,153.1c-6.51-.19-12.46-2.3-17.82-6.32-13.79-10.34-20.69-29.31-20.69-56.9,.76-10.92,1.91-20.12,3.45-27.59,6.13-28.74,20.3-44.06,42.53-45.98l4.88,.29c25.09,1.72,37.64,18.3,37.64,49.71,0,6.52-.58,14.08-1.72,22.7-.57,7.66-2.3,16-5.17,25-7.86,26.06-22.23,39.08-43.1,39.08Zm3.45-22.99c3.45-3.64,5.94-13.41,7.47-29.31,1.15-12.64,1.72-24.33,1.72-35.06,0-16.86-1.34-25.29-4.02-25.29-.39,0-.77,.19-1.15,.57-1.15,1.34-1.72,2.59-1.72,3.74-8.62,13.22-13.41,28.35-14.37,45.4,0,7.86,.86,15.04,2.59,21.55,1.72,6.51,4.88,12.64,9.48,18.39Z"/><path class="d" d="M279.48,153.96c-7.47-1.15-11.59-5.36-12.36-12.64-2.11-19.35-3.16-42.24-3.16-68.68,0-19.15,1.82-31.42,5.46-36.78,2.68-3.83,5.94-5.75,9.77-5.75s7.47,2.3,10.92,6.9c1.15,1.54,2.39,2.3,3.74,2.3h.29c1.53,0,3.54-1.63,6.04-4.88,1.34-2.11,3.06-4.02,5.17-5.75,10.53-9,21.26-13.51,32.18-13.51s19.54,3.83,26.44,11.49c5.94,6.71,8.91,14.56,8.91,23.56,0,4.6-.77,9.29-2.3,14.08-2.68,8.62-10.06,18.1-22.13,28.45-9.39,8.05-17.15,14.08-23.28,18.1-.58,.39-1.06,.86-1.44,1.44,1.91,2.68,6.03,6.32,12.36,10.92,1.53,.77,5.12,3.4,10.78,7.9,5.65,4.5,8.95,8.76,9.91,12.79,0,2.11-.96,4.12-2.87,6.03-2.3,1.92-4.98,2.87-8.05,2.87-6.9,0-16.19-4.69-27.87-14.08-2.87-1.91-5.94-4.12-9.2-6.61-5.37-4.02-8.72-6.03-10.06-6.03-.96,0-1.44,2.01-1.44,6.03s-.39,7.95-1.15,11.78c-1.34,6.13-6.9,9.48-16.67,10.06Zm27.87-62.07c.76,0,1.72-.19,2.87-.57,10.15-3.45,19.06-11.21,26.72-23.28,4.6-7.66,6.9-14.27,6.9-19.83,0-3.06-.77-5.75-2.3-8.05-1.54-2.3-3.35-3.45-5.46-3.45l-2.59,.57c-3.26,.77-7.66,5.65-13.22,14.66-4.79,7.66-9.01,16.09-12.64,25.29-2.3,5.37-3.45,9.1-3.45,11.21,0,2.3,1.05,3.45,3.16,3.45Z"/><path class="d" d="M426.69,153.96c-.96,0-3.4-.09-7.33-.29-3.93-.19-8.96-1.53-15.09-4.02-6.13-2.49-11.11-5.94-14.94-10.34-5.56-7.47-8.33-20.12-8.33-37.93,0-11.3,.67-21.65,2.01-31.03,2.68-20.11,6.7-34.2,12.07-42.24,2.11-2.87,5.65-5.27,10.63-7.18,9.2-3.64,19.44-5.46,30.75-5.46,16.09,0,24.61,2.87,25.57,8.62-.77,4.6-4.31,7.57-10.63,8.91-4.41,.77-9.39,1.34-14.94,1.72-9.96,1.54-16.77,5.37-20.4,11.49-2.49,4.79-4.02,11.21-4.6,19.25l-1.15,8.05c.58,2.3,2.2,3.45,4.89,3.45,1.15,0,2.68-.14,4.6-.43,1.91-.29,4.12-.43,6.61-.43,2.68,0,5.27,.96,7.76,2.87,2.49,1.92,3.74,3.64,3.74,5.17,0,3.83-6.32,7.66-18.97,11.49-4.22,1.34-7.47,2.59-9.77,3.74-.39,.77-.57,2.3-.57,4.6,0,5.94,1.15,13.22,3.45,21.84,4.6,5.56,8.81,8.33,12.64,8.33,4.02,0,8.52-1.72,13.51-5.17,4.21-2.3,7.95-3.45,11.21-3.45,1.72,0,3.74,.48,6.03,1.44,3.83,1.54,5.75,4.22,5.75,8.05,0,5.94-5.37,11.21-16.09,15.8-5.94,2.11-12.07,3.16-18.39,3.16Z"/><path class="d" d="M512.12,154.24c-5.94,0-12.17-1.53-18.68-4.6-9.77-6.51-16.77-13.22-20.98-20.12-5.37-9.38-8.05-21.07-8.05-35.06,0-13.03,1.91-26.15,5.75-39.37,4.79-15.9,11.49-27.2,20.12-33.91,5.36-4.21,12.64-6.32,21.84-6.32,9.2,.19,16.19,3.74,20.98,10.63,3.83,5.37,5.75,11.97,5.75,19.83v3.45c0,2.11-.1,4.12-.29,6.03-1.72,12.46-6.23,18.68-13.51,18.68-1.92,0-4.31-.38-7.18-1.15-3.64-2.49-5.46-9.58-5.46-21.26,0-6.51-.58-11.49-1.72-14.94-10.54,6.13-15.8,22.32-15.8,48.56,0,12.64,1.72,24.04,5.17,34.2,2.49,8.05,6.32,13.03,11.49,14.94,1.91-.96,3.4-2.77,4.45-5.46,1.05-2.68,1.96-5.75,2.73-9.2,.76-3.45,1.77-6.8,3.02-10.06,1.24-3.26,2.87-5.7,4.88-7.33,2.01-1.63,4.45-2.44,7.33-2.44,7.85,.57,11.78,4.5,11.78,11.78,0,8.81-4.88,20.5-14.66,35.06-4.6,5.37-10.92,8.05-18.97,8.05Z"/><path class="d" d="M601.83,153.96c-.96,0-3.4-.09-7.33-.29-3.93-.19-8.96-1.53-15.09-4.02-6.13-2.49-11.11-5.94-14.94-10.34-5.56-7.47-8.33-20.12-8.33-37.93,0-11.3,.67-21.65,2.01-31.03,2.68-20.11,6.7-34.2,12.07-42.24,2.11-2.87,5.65-5.27,10.63-7.18,9.2-3.64,19.44-5.46,30.75-5.46,16.09,0,24.61,2.87,25.57,8.62-.77,4.6-4.31,7.57-10.63,8.91-4.41,.77-9.39,1.34-14.94,1.72-9.96,1.54-16.77,5.37-20.4,11.49-2.49,4.79-4.02,11.21-4.6,19.25l-1.15,8.05c.58,2.3,2.2,3.45,4.89,3.45,1.15,0,2.68-.14,4.6-.43,1.91-.29,4.12-.43,6.61-.43,2.68,0,5.27,.96,7.76,2.87,2.49,1.92,3.74,3.64,3.74,5.17,0,3.83-6.32,7.66-18.97,11.49-4.22,1.34-7.47,2.59-9.77,3.74-.39,.77-.57,2.3-.57,4.6,0,5.94,1.15,13.22,3.45,21.84,4.6,5.56,8.81,8.33,12.64,8.33,4.02,0,8.52-1.72,13.51-5.17,4.21-2.3,7.95-3.45,11.21-3.45,1.72,0,3.74,.48,6.03,1.44,3.83,1.54,5.75,4.22,5.75,8.05,0,5.94-5.37,11.21-16.09,15.8-5.94,2.11-12.07,3.16-18.39,3.16Z"/><path class="d" d="M659.59,153.96c-7.47-1.15-11.59-5.36-12.36-12.64-2.11-19.35-3.16-42.24-3.16-68.68,0-19.15,1.82-31.42,5.46-36.78,2.68-3.83,5.94-5.75,9.77-5.75s7.47,2.3,10.92,6.9c1.15,1.54,2.39,2.3,3.74,2.3h.29c1.53,0,3.54-1.63,6.04-4.88,1.34-2.11,3.06-4.02,5.17-5.75,10.53-9,21.26-13.51,32.18-13.51s19.54,3.83,26.44,11.49c5.94,6.71,8.91,14.56,8.91,23.56,0,4.6-.77,9.29-2.3,14.08-2.68,8.62-10.06,18.1-22.13,28.45-9.39,8.05-17.15,14.08-23.28,18.1-.58,.39-1.06,.86-1.44,1.44,1.91,2.68,6.03,6.32,12.36,10.92,1.53,.77,5.12,3.4,10.78,7.9,5.65,4.5,8.95,8.76,9.91,12.79,0,2.11-.96,4.12-2.87,6.03-2.3,1.92-4.98,2.87-8.05,2.87-6.9,0-16.19-4.69-27.87-14.08-2.87-1.91-5.94-4.12-9.2-6.61-5.37-4.02-8.72-6.03-10.06-6.03-.96,0-1.44,2.01-1.44,6.03s-.39,7.95-1.15,11.78c-1.34,6.13-6.9,9.48-16.67,10.06Zm27.87-62.07c.76,0,1.72-.19,2.87-.57,10.15-3.45,19.06-11.21,26.72-23.28,4.6-7.66,6.9-14.27,6.9-19.83,0-3.06-.77-5.75-2.3-8.05-1.54-2.3-3.35-3.45-5.46-3.45l-2.59,.57c-3.26,.77-7.66,5.65-13.22,14.66-4.79,7.66-9.01,16.09-12.64,25.29-2.3,5.37-3.45,9.1-3.45,11.21,0,2.3,1.05,3.45,3.16,3.45Z"/></g><path class="d" d="M785.08,11.09c0,6.22-5,11.16-11.36,11.16s-11.43-4.94-11.43-11.16,5.07-11.09,11.49-11.09,11.29,4.87,11.29,11.09Zm-19.95,0c0,4.94,3.72,8.86,8.65,8.86,4.8,.07,8.45-3.92,8.45-8.79s-3.65-8.92-8.59-8.92-8.52,3.99-8.52,8.86Zm6.83,5.75h-2.57V5.75c1.01-.14,2.43-.34,4.26-.34,2.1,0,3.04,.34,3.79,.88,.68,.47,1.15,1.28,1.15,2.37,0,1.35-1.01,2.23-2.3,2.64v.14c1.08,.34,1.62,1.22,1.96,2.7,.34,1.69,.61,2.3,.81,2.7h-2.71c-.34-.41-.54-1.35-.88-2.7-.2-1.15-.88-1.69-2.3-1.69h-1.22v4.4Zm.07-6.22h1.22c1.42,0,2.57-.47,2.57-1.62,0-1.01-.74-1.69-2.37-1.69-.68,0-1.15,.07-1.42,.14v3.18Z"/><g><path class="d" d="M174.17,200.66c.98,1.24,1.47,2.66,1.47,4.25,0,1.44-.36,2.71-1.06,3.81-.71,1.1-1.73,1.95-3.08,2.57-1.34,.62-2.93,.93-4.76,.93h-11.64v-26.99h11.14c1.83,0,3.41,.3,4.74,.89,1.33,.59,2.33,1.42,3.02,2.48,.68,1.06,1.02,2.26,1.02,3.6,0,1.57-.42,2.89-1.26,3.94-.84,1.06-1.95,1.8-3.34,2.24,1.52,.28,2.77,1.04,3.75,2.28Zm-13.65-4.29h4.95c1.29,0,2.28-.29,2.98-.87,.7-.58,1.04-1.41,1.04-2.49s-.35-1.92-1.04-2.51c-.7-.59-1.69-.89-2.98-.89h-4.95v6.77Zm8.53,10.52c.73-.62,1.1-1.5,1.1-2.63s-.39-2.07-1.16-2.73-1.82-.99-3.13-.99h-5.34v7.27h5.45c1.32,0,2.34-.31,3.08-.93Z"/><path class="d" d="M193.89,212.22l-5.96-10.52h-2.55v10.52h-5.42v-26.99h10.13c2.09,0,3.87,.37,5.34,1.1s2.57,1.73,3.31,2.98c.73,1.25,1.1,2.65,1.1,4.2,0,1.78-.52,3.38-1.55,4.81-1.03,1.43-2.57,2.42-4.6,2.96l6.46,10.94h-6.26Zm-8.51-14.58h4.52c1.47,0,2.57-.35,3.29-1.06,.72-.71,1.08-1.69,1.08-2.96s-.36-2.2-1.08-2.88c-.72-.68-1.82-1.03-3.29-1.03h-4.52v7.93Z"/><path class="d" d="M210.17,185.23v26.99h-5.42v-26.99h5.42Z"/><path class="d" d="M220.92,207.93h8.89v4.29h-14.31v-26.99h5.42v22.7Z"/><path class="d" d="M238.67,207.93h8.89v4.29h-14.31v-26.99h5.42v22.7Z"/><path class="d" d="M267.56,207.08h-10.75l-1.78,5.14h-5.68l9.71-27.03h6.3l9.71,27.03h-5.72l-1.78-5.14Zm-1.47-4.33l-3.91-11.29-3.91,11.29h7.81Z"/><path class="d" d="M288.39,191.55c1.2-2.1,2.84-3.74,4.91-4.91,2.08-1.17,4.4-1.76,6.98-1.76,3.02,0,5.66,.77,7.93,2.32s3.85,3.69,4.76,6.42h-6.23c-.62-1.29-1.49-2.26-2.61-2.9-1.12-.64-2.42-.97-3.89-.97-1.57,0-2.97,.37-4.2,1.1-1.23,.74-2.18,1.77-2.86,3.11-.68,1.34-1.02,2.91-1.02,4.72s.34,3.34,1.02,4.7c.68,1.35,1.64,2.4,2.86,3.13,1.22,.73,2.62,1.1,4.2,1.1,1.47,0,2.77-.33,3.89-.99,1.12-.66,1.99-1.63,2.61-2.92h6.23c-.9,2.76-2.48,4.91-4.74,6.44-2.26,1.53-4.91,2.3-7.95,2.3-2.58,0-4.91-.59-6.98-1.76-2.08-1.17-3.71-2.8-4.91-4.89-1.2-2.09-1.8-4.46-1.8-7.12s.6-5.03,1.8-7.14Z"/><path class="d" d="M323.17,210.71c-2.11-1.19-3.79-2.83-5.03-4.93-1.24-2.1-1.86-4.48-1.86-7.13s.62-5,1.86-7.1c1.24-2.1,2.91-3.74,5.03-4.93,2.11-1.19,4.43-1.78,6.96-1.78s4.88,.59,6.98,1.78c2.1,1.19,3.76,2.83,4.99,4.93,1.22,2.1,1.84,4.47,1.84,7.1s-.61,5.03-1.84,7.13c-1.22,2.1-2.89,3.75-5.01,4.93s-4.43,1.78-6.96,1.78-4.85-.59-6.96-1.78Zm11.25-4.16c1.24-.73,2.2-1.78,2.9-3.15,.7-1.37,1.04-2.95,1.04-4.76s-.35-3.38-1.04-4.74-1.66-2.39-2.9-3.11-2.67-1.08-4.29-1.08-3.06,.36-4.31,1.08c-1.25,.72-2.22,1.76-2.92,3.11s-1.04,2.93-1.04,4.74,.35,3.39,1.04,4.76c.7,1.37,1.67,2.42,2.92,3.15,1.25,.74,2.69,1.1,4.31,1.1s3.06-.37,4.29-1.1Z"/><path class="d" d="M371.05,212.22h-5.41l-12.26-18.52v18.52h-5.42v-27.03h5.42l12.26,18.56v-18.56h5.41v27.03Z"/><path class="d" d="M408.68,212.22h-5.41l-12.26-18.52v18.52h-5.42v-27.03h5.42l12.26,18.56v-18.56h5.41v27.03Z"/><path class="d" d="M419.58,210.71c-2.11-1.19-3.79-2.83-5.03-4.93-1.24-2.1-1.86-4.48-1.86-7.13s.62-5,1.86-7.1c1.24-2.1,2.91-3.74,5.03-4.93,2.11-1.19,4.43-1.78,6.96-1.78s4.88,.59,6.98,1.78c2.1,1.19,3.76,2.83,4.99,4.93,1.22,2.1,1.84,4.47,1.84,7.1s-.61,5.03-1.84,7.13c-1.22,2.1-2.89,3.75-5.01,4.93s-4.43,1.78-6.96,1.78-4.85-.59-6.96-1.78Zm11.25-4.16c1.24-.73,2.2-1.78,2.9-3.15,.7-1.37,1.04-2.95,1.04-4.76s-.35-3.38-1.04-4.74-1.66-2.39-2.9-3.11-2.67-1.08-4.29-1.08-3.06,.36-4.31,1.08c-1.25,.72-2.22,1.76-2.92,3.11s-1.04,2.93-1.04,4.74,.35,3.39,1.04,4.76c.7,1.37,1.67,2.42,2.92,3.15,1.25,.74,2.69,1.1,4.31,1.1s3.06-.37,4.29-1.1Z"/><path class="d" d="M448.61,211.52c-1.51-.64-2.7-1.57-3.58-2.78-.88-1.21-1.33-2.64-1.35-4.29h5.8c.08,1.11,.47,1.99,1.18,2.63,.71,.64,1.68,.97,2.92,.97s2.25-.3,2.98-.91c.72-.61,1.08-1.4,1.08-2.38,0-.8-.25-1.46-.74-1.97-.49-.51-1.1-.92-1.84-1.22-.73-.3-1.75-.62-3.04-.99-1.75-.52-3.18-1.02-4.27-1.53-1.1-.5-2.04-1.26-2.82-2.28-.79-1.02-1.18-2.38-1.18-4.08,0-1.6,.4-2.99,1.2-4.18,.8-1.19,1.92-2.09,3.37-2.73,1.44-.63,3.09-.95,4.95-.95,2.78,0,5.05,.68,6.79,2.03s2.7,3.24,2.88,5.67h-5.96c-.05-.93-.44-1.7-1.18-2.3-.74-.61-1.71-.91-2.92-.91-1.06,0-1.9,.27-2.53,.81-.63,.54-.95,1.33-.95,2.36,0,.72,.24,1.32,.71,1.8,.48,.48,1.07,.86,1.78,1.16,.71,.3,1.71,.64,3,1.02,1.75,.52,3.18,1.03,4.29,1.55,1.11,.52,2.06,1.29,2.86,2.32,.8,1.03,1.2,2.39,1.2,4.06,0,1.44-.37,2.78-1.12,4.02s-1.84,2.22-3.29,2.96c-1.44,.73-3.16,1.1-5.14,1.1-1.88,0-3.58-.32-5.08-.97Z"/><path class="d" d="M473.49,210.71c-2.11-1.19-3.79-2.83-5.03-4.93-1.24-2.1-1.86-4.48-1.86-7.13s.62-5,1.86-7.1c1.24-2.1,2.91-3.74,5.03-4.93,2.11-1.19,4.43-1.78,6.96-1.78s4.88,.59,6.98,1.78c2.1,1.19,3.76,2.83,4.99,4.93,1.22,2.1,1.84,4.47,1.84,7.1s-.61,5.03-1.84,7.13c-1.22,2.1-2.89,3.75-5.01,4.93s-4.43,1.78-6.96,1.78-4.85-.59-6.96-1.78Zm11.25-4.16c1.24-.73,2.2-1.78,2.9-3.15,.7-1.37,1.04-2.95,1.04-4.76s-.35-3.38-1.04-4.74-1.66-2.39-2.9-3.11-2.67-1.08-4.29-1.08-3.06,.36-4.31,1.08c-1.25,.72-2.22,1.76-2.92,3.11s-1.04,2.93-1.04,4.74,.35,3.39,1.04,4.76c.7,1.37,1.67,2.42,2.92,3.15,1.25,.74,2.69,1.1,4.31,1.1s3.06-.37,4.29-1.1Z"/><path class="d" d="M516.65,185.23v4.37h-7.19v22.62h-5.41v-22.62h-7.19v-4.37h19.8Z"/><path class="d" d="M534.52,212.22l-5.96-10.52h-2.55v10.52h-5.42v-26.99h10.13c2.09,0,3.87,.37,5.34,1.1s2.57,1.73,3.31,2.98c.73,1.25,1.1,2.65,1.1,4.2,0,1.78-.52,3.38-1.55,4.81-1.03,1.43-2.57,2.42-4.6,2.96l6.46,10.94h-6.26Zm-8.51-14.58h4.52c1.47,0,2.57-.35,3.29-1.06,.72-.71,1.08-1.69,1.08-2.96s-.36-2.2-1.08-2.88c-.72-.68-1.82-1.03-3.29-1.03h-4.52v7.93Z"/><path class="d" d="M550.95,210.71c-2.11-1.19-3.79-2.83-5.03-4.93-1.24-2.1-1.86-4.48-1.86-7.13s.62-5,1.86-7.1c1.24-2.1,2.91-3.74,5.03-4.93,2.11-1.19,4.43-1.78,6.96-1.78s4.88,.59,6.98,1.78c2.1,1.19,3.76,2.83,4.99,4.93,1.22,2.1,1.84,4.47,1.84,7.1s-.61,5.03-1.84,7.13c-1.22,2.1-2.89,3.75-5.01,4.93s-4.43,1.78-6.96,1.78-4.85-.59-6.96-1.78Zm11.25-4.16c1.24-.73,2.2-1.78,2.9-3.15,.7-1.37,1.04-2.95,1.04-4.76s-.35-3.38-1.04-4.74-1.66-2.39-2.9-3.11-2.67-1.08-4.29-1.08-3.06,.36-4.31,1.08c-1.25,.72-2.22,1.76-2.92,3.11s-1.04,2.93-1.04,4.74,.35,3.39,1.04,4.76c.7,1.37,1.67,2.42,2.92,3.15,1.25,.74,2.69,1.1,4.31,1.1s3.06-.37,4.29-1.1Z"/><path class="d" d="M579.98,211.52c-1.51-.64-2.7-1.57-3.58-2.78-.88-1.21-1.33-2.64-1.35-4.29h5.8c.08,1.11,.47,1.99,1.18,2.63,.71,.64,1.68,.97,2.92,.97s2.25-.3,2.98-.91c.72-.61,1.08-1.4,1.08-2.38,0-.8-.25-1.46-.74-1.97-.49-.51-1.1-.92-1.84-1.22-.73-.3-1.75-.62-3.04-.99-1.75-.52-3.18-1.02-4.27-1.53-1.1-.5-2.04-1.26-2.82-2.28-.79-1.02-1.18-2.38-1.18-4.08,0-1.6,.4-2.99,1.2-4.18,.8-1.19,1.92-2.09,3.37-2.73,1.44-.63,3.09-.95,4.95-.95,2.78,0,5.05,.68,6.79,2.03s2.7,3.24,2.88,5.67h-5.96c-.05-.93-.44-1.7-1.18-2.3-.74-.61-1.71-.91-2.92-.91-1.06,0-1.9,.27-2.53,.81-.63,.54-.95,1.33-.95,2.36,0,.72,.24,1.32,.71,1.8,.48,.48,1.07,.86,1.78,1.16,.71,.3,1.71,.64,3,1.02,1.75,.52,3.18,1.03,4.29,1.55,1.11,.52,2.06,1.29,2.86,2.32,.8,1.03,1.2,2.39,1.2,4.06,0,1.44-.37,2.78-1.12,4.02s-1.84,2.22-3.29,2.96c-1.44,.73-3.16,1.1-5.14,1.1-1.88,0-3.58-.32-5.08-.97Z"/></g><rect class="d" x="0" y="196.1" width="129.72" height="4.18"/><rect class="d" x="618.31" y="196.1" width="129.72" height="4.18"/></g></g></svg>